<svg width="64" height="64" viewBox="0 0 64 64" fill="none" xmlns="http://www.w3.org/2000/svg" role="img" aria-label="Lighthouse Club">
  <defs>
    <linearGradient id="bg" x1="0" y1="0" x2="1" y2="1">
      <stop offset="0" stop-color="#14253f"/>
      <stop offset="1" stop-color="#0a1526"/>
    </linearGradient>
    <linearGradient id="twr" x1="0" y1="0" x2="0" y2="1">
      <stop offset="0" stop-color="#f7f9fc"/>
      <stop offset="1" stop-color="#cdd8e8"/>
    </linearGradient>
    <radialGradient id="glo" cx="50%" cy="50%" r="50%">
      <stop offset="0" stop-color="#ffe1b0" stop-opacity=".9"/>
      <stop offset="1" stop-color="#ffe1b0" stop-opacity="0"/>
    </radialGradient>
  </defs>
  <rect width="64" height="64" rx="15" fill="url(#bg)"/>
  <path d="M32 24 L60 14 L60 34 Z" fill="#ffd89b" opacity=".5"/>
  <path d="M32 24 L4 14 L4 34 Z" fill="#ffd89b" opacity=".5"/>
  <circle cx="32" cy="24" r="13" fill="url(#glo)"/>
  <path d="M27 17 L32 10 L37 17 Z" fill="#0e1c33"/>
  <circle cx="32" cy="9.5" r="1.6" fill="#ffc36b"/>
  <rect x="28" y="17" width="8" height="7" rx="1" fill="#0e1c33"/>
  <rect x="30" y="19" width="4" height="4.5" rx="0.6" fill="#ffe1b0"/>
  <rect x="26" y="24" width="12" height="2" rx="1" fill="#16263f"/>
  <path d="M27.5 26 h9 l2.4 26 h-13.8 z" fill="url(#twr)"/>
  <path d="M28.1 33 h7.8 l.4 5 h-8.6 z" fill="#ffc36b"/>
  <path d="M27 44 h10 l.5 5 h-11 z" fill="#ffc36b" opacity=".8"/>
  <path d="M23 52 h18 l3 6 h-24 z" fill="#0c1a30"/>
</svg>
